<mxfile host="app.diagrams.net" agent="Mozilla/5.0 (Windows NT 10.0; Win64; x64) AppleWebKit/537.36 (KHTML, like Gecko) Chrome/141.0.0.0 Safari/537.36" version="28.2.7">
  <diagram name="Page-1" id="I0mGAWBp0R64HSpcVHNl">
    <mxGraphModel dx="1678" dy="874" grid="0" gridSize="10" guides="1" tooltips="1" connect="1" arrows="1" fold="1" page="1" pageScale="1" pageWidth="827" pageHeight="1169" math="0" shadow="0">
      <root>
        <mxCell id="0" />
        <mxCell id="1" parent="0" />
        <mxCell id="cOrlRUEG79CqqQD8SRZJ-7" value="&lt;font style=&quot;font-size: 15px;&quot;&gt;湖仓一体&lt;/font&gt;" style="rounded=1;whiteSpace=wrap;html=1;arcSize=10;fillColor=#dae8fc;strokeColor=#6c8ebf;" vertex="1" parent="1">
          <mxGeometry x="289" y="730" width="785" height="50" as="geometry" />
        </mxCell>
        <mxCell id="cOrlRUEG79CqqQD8SRZJ-55" style="edgeStyle=orthogonalEdgeStyle;rounded=0;orthogonalLoop=1;jettySize=auto;html=1;exitX=0.5;exitY=0;exitDx=0;exitDy=0;entryX=0.5;entryY=1;entryDx=0;entryDy=0;" edge="1" parent="1" source="cOrlRUEG79CqqQD8SRZJ-8" target="cOrlRUEG79CqqQD8SRZJ-43">
          <mxGeometry relative="1" as="geometry" />
        </mxCell>
        <mxCell id="cOrlRUEG79CqqQD8SRZJ-8" value="&lt;font style=&quot;font-size: 14px;&quot;&gt;GNN&amp;amp;Attention&lt;/font&gt;" style="rounded=1;whiteSpace=wrap;html=1;arcSize=10;fillColor=#ffe6cc;strokeColor=#d79b00;" vertex="1" parent="1">
          <mxGeometry x="290" y="660" width="782" height="50" as="geometry" />
        </mxCell>
        <mxCell id="cOrlRUEG79CqqQD8SRZJ-1" value="外部数据" style="rounded=1;whiteSpace=wrap;html=1;arcSize=10;fillColor=#FFF2CC;strokeColor=#6c8ebf;" vertex="1" parent="1">
          <mxGeometry x="428" y="805" width="120" height="60" as="geometry" />
        </mxCell>
        <mxCell id="cOrlRUEG79CqqQD8SRZJ-2" value="通信网大数据" style="rounded=1;whiteSpace=wrap;html=1;arcSize=10;fillColor=#FFF2CC;strokeColor=#6c8ebf;" vertex="1" parent="1">
          <mxGeometry x="586.5" y="805" width="199.5" height="60" as="geometry" />
        </mxCell>
        <mxCell id="cOrlRUEG79CqqQD8SRZJ-3" value="业务数据" style="rounded=1;whiteSpace=wrap;html=1;arcSize=10;fillColor=#FFF2CC;strokeColor=#6c8ebf;" vertex="1" parent="1">
          <mxGeometry x="830" y="805" width="120" height="60" as="geometry" />
        </mxCell>
        <mxCell id="cOrlRUEG79CqqQD8SRZJ-4" value="采集" style="rounded=1;whiteSpace=wrap;html=1;arcSize=10;fillColor=#97D077;strokeColor=#009900;" vertex="1" parent="1">
          <mxGeometry x="302" y="810" width="56" height="34" as="geometry" />
        </mxCell>
        <mxCell id="cOrlRUEG79CqqQD8SRZJ-5" value="存储" style="rounded=1;whiteSpace=wrap;html=1;arcSize=10;fillColor=#97D077;strokeColor=#009900;" vertex="1" parent="1">
          <mxGeometry x="303" y="739" width="54" height="32" as="geometry" />
        </mxCell>
        <mxCell id="cOrlRUEG79CqqQD8SRZJ-6" value="融合" style="rounded=1;whiteSpace=wrap;html=1;arcSize=10;fillColor=#97D077;strokeColor=#009900;" vertex="1" parent="1">
          <mxGeometry x="304" y="669" width="54" height="32" as="geometry" />
        </mxCell>
        <mxCell id="cOrlRUEG79CqqQD8SRZJ-10" value="纵向部-集-省多级协同" style="rounded=1;whiteSpace=wrap;html=1;arcSize=10;fillColor=#d5e8d4;strokeColor=#82b366;" vertex="1" parent="1">
          <mxGeometry x="330" y="456.5" width="144" height="85" as="geometry" />
        </mxCell>
        <mxCell id="cOrlRUEG79CqqQD8SRZJ-11" value="各安全平台闭环响应中枢" style="rounded=1;whiteSpace=wrap;html=1;arcSize=10;fillColor=#FEEBEA;strokeColor=#9673a6;" vertex="1" parent="1">
          <mxGeometry x="869" y="460" width="139" height="80" as="geometry" />
        </mxCell>
        <mxCell id="cOrlRUEG79CqqQD8SRZJ-47" value="" style="edgeStyle=orthogonalEdgeStyle;rounded=0;orthogonalLoop=1;jettySize=auto;html=1;" edge="1" parent="1" source="cOrlRUEG79CqqQD8SRZJ-12" target="cOrlRUEG79CqqQD8SRZJ-10">
          <mxGeometry relative="1" as="geometry" />
        </mxCell>
        <mxCell id="cOrlRUEG79CqqQD8SRZJ-57" value="" style="edgeStyle=orthogonalEdgeStyle;rounded=0;orthogonalLoop=1;jettySize=auto;html=1;" edge="1" parent="1" source="cOrlRUEG79CqqQD8SRZJ-12" target="cOrlRUEG79CqqQD8SRZJ-11">
          <mxGeometry relative="1" as="geometry" />
        </mxCell>
        <mxCell id="cOrlRUEG79CqqQD8SRZJ-12" value="&lt;font style=&quot;font-size: 32px;&quot;&gt;&lt;b style=&quot;&quot;&gt;溯源&lt;/b&gt;&lt;/font&gt;" style="rhombus;whiteSpace=wrap;html=1;fillColor=#CC99FF;strokeColor=#9673a6;rounded=1;" vertex="1" parent="1">
          <mxGeometry x="530" y="444" width="295" height="110" as="geometry" />
        </mxCell>
        <mxCell id="cOrlRUEG79CqqQD8SRZJ-13" value="定位" style="ellipse;whiteSpace=wrap;html=1;fillColor=#ffe6cc;strokeColor=#d79b00;" vertex="1" parent="1">
          <mxGeometry x="410" y="571" width="100" height="89" as="geometry" />
        </mxCell>
        <mxCell id="cOrlRUEG79CqqQD8SRZJ-14" value="还原" style="ellipse;whiteSpace=wrap;html=1;fillColor=#ffe6cc;strokeColor=#d79b00;" vertex="1" parent="1">
          <mxGeometry x="885" y="575" width="100" height="85" as="geometry" />
        </mxCell>
        <mxCell id="cOrlRUEG79CqqQD8SRZJ-18" value="CDN" style="rounded=1;whiteSpace=wrap;html=1;arcSize=10;fillColor=#dae8fc;strokeColor=#6c8ebf;" vertex="1" parent="1">
          <mxGeometry x="471.5" y="329" width="120" height="60" as="geometry" />
        </mxCell>
        <mxCell id="cOrlRUEG79CqqQD8SRZJ-19" value="通信网" style="rounded=1;whiteSpace=wrap;html=1;arcSize=10;fillColor=#dae8fc;strokeColor=#6c8ebf;" vertex="1" parent="1">
          <mxGeometry x="621.5" y="329" width="120" height="60" as="geometry" />
        </mxCell>
        <mxCell id="cOrlRUEG79CqqQD8SRZJ-20" value="公有云" style="rounded=1;whiteSpace=wrap;html=1;arcSize=10;fillColor=#dae8fc;strokeColor=#6c8ebf;" vertex="1" parent="1">
          <mxGeometry x="771.5" y="329" width="120" height="60" as="geometry" />
        </mxCell>
        <mxCell id="cOrlRUEG79CqqQD8SRZJ-31" value="" style="endArrow=classic;html=1;rounded=0;" edge="1" parent="1" source="cOrlRUEG79CqqQD8SRZJ-13" target="cOrlRUEG79CqqQD8SRZJ-12">
          <mxGeometry width="50" height="50" relative="1" as="geometry">
            <mxPoint x="574" y="499" as="sourcePoint" />
            <mxPoint x="614" y="499" as="targetPoint" />
          </mxGeometry>
        </mxCell>
        <mxCell id="cOrlRUEG79CqqQD8SRZJ-33" value="" style="endArrow=classic;html=1;rounded=0;" edge="1" parent="1" source="cOrlRUEG79CqqQD8SRZJ-12" target="cOrlRUEG79CqqQD8SRZJ-19">
          <mxGeometry width="50" height="50" relative="1" as="geometry">
            <mxPoint x="679" y="434" as="sourcePoint" />
            <mxPoint x="679" y="374" as="targetPoint" />
          </mxGeometry>
        </mxCell>
        <mxCell id="cOrlRUEG79CqqQD8SRZJ-34" value="" style="endArrow=classic;html=1;rounded=0;" edge="1" parent="1" source="cOrlRUEG79CqqQD8SRZJ-12" target="cOrlRUEG79CqqQD8SRZJ-18">
          <mxGeometry width="50" height="50" relative="1" as="geometry">
            <mxPoint x="669" y="434" as="sourcePoint" />
            <mxPoint x="529" y="374" as="targetPoint" />
          </mxGeometry>
        </mxCell>
        <mxCell id="cOrlRUEG79CqqQD8SRZJ-35" value="" style="endArrow=classic;html=1;rounded=0;" edge="1" parent="1" source="cOrlRUEG79CqqQD8SRZJ-12" target="cOrlRUEG79CqqQD8SRZJ-20">
          <mxGeometry width="50" height="50" relative="1" as="geometry">
            <mxPoint x="689" y="434" as="sourcePoint" />
            <mxPoint x="829" y="374" as="targetPoint" />
          </mxGeometry>
        </mxCell>
        <mxCell id="cOrlRUEG79CqqQD8SRZJ-56" style="edgeStyle=orthogonalEdgeStyle;rounded=0;orthogonalLoop=1;jettySize=auto;html=1;exitX=0.5;exitY=0;exitDx=0;exitDy=0;entryX=0.5;entryY=1;entryDx=0;entryDy=0;" edge="1" parent="1" source="cOrlRUEG79CqqQD8SRZJ-43" target="cOrlRUEG79CqqQD8SRZJ-12">
          <mxGeometry relative="1" as="geometry" />
        </mxCell>
        <mxCell id="cOrlRUEG79CqqQD8SRZJ-43" value="智能" style="ellipse;whiteSpace=wrap;html=1;fillColor=#f8cecc;strokeColor=#b85450;" vertex="1" parent="1">
          <mxGeometry x="607.5" y="566" width="143" height="72" as="geometry" />
        </mxCell>
        <mxCell id="cOrlRUEG79CqqQD8SRZJ-44" value="&lt;span style=&quot;color: rgb(0, 0, 0); font-family: Helvetica; font-size: 12px; font-style: normal; font-variant-ligatures: normal; font-variant-caps: normal; font-weight: 400; letter-spacing: normal; orphans: 2; text-align: center; text-indent: 0px; text-transform: none; widows: 2; word-spacing: 0px; -webkit-text-stroke-width: 0px; white-space: normal; background-color: rgb(236, 236, 236); text-decoration-thickness: initial; text-decoration-style: initial; text-decoration-color: initial; display: inline !important; float: none;&quot;&gt;标准化&lt;/span&gt;" style="text;whiteSpace=wrap;html=1;" vertex="1" parent="1">
          <mxGeometry x="1009.9976470588234" y="744.0017647058825" width="64" height="36" as="geometry" />
        </mxCell>
        <mxCell id="cOrlRUEG79CqqQD8SRZJ-45" value="&lt;span style=&quot;color: rgb(0, 0, 0); font-family: Helvetica; font-size: 12px; font-style: normal; font-variant-ligatures: normal; font-variant-caps: normal; font-weight: 400; letter-spacing: normal; orphans: 2; text-align: center; text-indent: 0px; text-transform: none; widows: 2; word-spacing: 0px; -webkit-text-stroke-width: 0px; white-space: normal; text-decoration-thickness: initial; text-decoration-style: initial; text-decoration-color: initial; float: none; display: inline !important;&quot;&gt;统一&lt;/span&gt;" style="text;whiteSpace=wrap;html=1;" vertex="1" parent="1">
          <mxGeometry x="1019.9964705882356" y="673.9970588235295" width="52" height="36" as="geometry" />
        </mxCell>
        <mxCell id="cOrlRUEG79CqqQD8SRZJ-52" value="" style="shape=step;perimeter=stepPerimeter;whiteSpace=wrap;html=1;fixedSize=1;direction=north;rounded=1;fillColor=#d0cee2;strokeColor=#56517e;" vertex="1" parent="1">
          <mxGeometry x="534" y="583" width="68" height="222" as="geometry" />
        </mxCell>
        <mxCell id="cOrlRUEG79CqqQD8SRZJ-46" value="" style="endArrow=classic;html=1;rounded=0;exitX=0;exitY=0.5;exitDx=0;exitDy=0;" edge="1" parent="1" source="cOrlRUEG79CqqQD8SRZJ-14" target="cOrlRUEG79CqqQD8SRZJ-12">
          <mxGeometry width="50" height="50" relative="1" as="geometry">
            <mxPoint x="893" y="591" as="sourcePoint" />
            <mxPoint x="1005" y="549" as="targetPoint" />
          </mxGeometry>
        </mxCell>
        <mxCell id="cOrlRUEG79CqqQD8SRZJ-53" value="" style="shape=step;perimeter=stepPerimeter;whiteSpace=wrap;html=1;fixedSize=1;direction=north;rounded=1;fillColor=#d0cee2;strokeColor=#56517e;" vertex="1" parent="1">
          <mxGeometry x="771" y="583" width="68" height="222" as="geometry" />
        </mxCell>
        <mxCell id="cOrlRUEG79CqqQD8SRZJ-54" value="&lt;span style=&quot;color: rgb(0, 0, 0); font-family: Helvetica; font-style: normal; font-variant-ligatures: normal; font-variant-caps: normal; font-weight: 400; letter-spacing: normal; orphans: 2; text-align: center; text-indent: 0px; text-transform: none; widows: 2; word-spacing: 0px; -webkit-text-stroke-width: 0px; white-space: normal; text-decoration-thickness: initial; text-decoration-style: initial; text-decoration-color: initial; float: none; background-color: light-dark(rgb(208, 206, 226), rgb(237, 237, 237)); display: inline !important;&quot;&gt;威胁情报&lt;/span&gt;" style="text;whiteSpace=wrap;html=1;fontSize=20;fillColor=#d0cee2;strokeColor=none;" vertex="1" parent="1">
          <mxGeometry x="555" y="638.18" width="20.88" height="132.82" as="geometry" />
        </mxCell>
        <mxCell id="cOrlRUEG79CqqQD8SRZJ-59" value="&lt;span style=&quot;color: rgb(0, 0, 0); font-family: Helvetica; font-size: 20px; font-style: normal; font-variant-ligatures: normal; font-variant-caps: normal; font-weight: 400; letter-spacing: normal; orphans: 2; text-align: center; text-indent: 0px; text-transform: none; widows: 2; word-spacing: 0px; -webkit-text-stroke-width: 0px; white-space: normal; text-decoration-thickness: initial; text-decoration-style: initial; text-decoration-color: initial; float: none; display: inline !important;&quot;&gt;数据治理&lt;/span&gt;" style="text;whiteSpace=wrap;html=1;" vertex="1" parent="1">
          <mxGeometry x="790" y="638.18" width="26.12" height="120" as="geometry" />
        </mxCell>
      </root>
    </mxGraphModel>
  </diagram>
</mxfile>
